<svg width="120" height="105" viewBox="0 0 120 105" fill="none" xmlns="http://www.w3.org/2000/svg">
<path fill-rule="evenodd" clip-rule="evenodd" d="M53.58 86.601H53.9917L54.4151 87.083L55.1208 86.9184C55.2149 87.13 55.262 87.2907 55.262 87.4005H55.3914C55.3914 87.0791 55.4855 86.9184 55.6736 86.9184L58.1907 92.2444C58.0103 92.3541 57.8731 92.409 57.779 92.409V92.5736C58.7199 94.345 59.559 96.281 60.296 98.3815H60.7194C60.9939 94.392 61.1311 91.8094 61.1311 90.6337V88.8583L60.8488 88.3763V87.8943C61.0997 87.2437 61.2879 86.9184 61.4134 86.9184H61.8368C62.1661 86.9184 62.5857 86.9733 63.0953 87.083C63.2365 86.9733 63.5148 86.9184 63.9304 86.9184C64.2127 87.3338 64.3538 87.6591 64.3538 87.8943C64.0716 92.213 63.9304 97.3234 63.9304 103.225C63.2482 103.868 62.221 104.19 60.8488 104.19C59.359 104.119 58.6141 103.958 58.6141 103.707C58.7788 103.598 58.9669 103.543 59.1787 103.543V103.225H58.8964L58.4729 103.543C58.2534 103.543 58.1123 103.167 58.0495 102.414L58.3318 102.25C57.5869 99.9923 56.7949 98.2169 55.9559 96.9237V97.0883C55.8618 100.231 55.8148 102.222 55.8148 103.061C55.658 103.171 55.4266 103.225 55.1208 103.225V103.378H55.5325V103.872L54.8386 103.707H53.4389V103.225H52.7332C52.7332 103.547 52.643 103.707 52.4627 103.707L52.1804 103.543C52.1804 103.653 52.1333 103.707 52.0393 103.707L51.8981 103.378V103.061C52.0941 102.63 52.3255 102.414 52.5921 102.414L52.3215 101.932C52.5019 101.932 52.5921 101.822 52.5921 101.603C52.498 101.603 52.3607 101.552 52.1804 101.45C52.2745 100.126 52.4117 99.3691 52.5921 99.181C52.4117 99.181 52.3215 99.0752 52.3215 98.8636C52.3215 98.1111 52.3686 97.68 52.4627 97.5703C52.3686 96.8335 52.3215 96.2418 52.3215 95.795V95.1484C52.3215 94.5919 52.4588 94.1098 52.7332 93.7022V93.5376C52.5528 93.3574 52.4156 92.5501 52.3215 91.1157L52.4627 89.987C52.4627 89.6735 52.3686 88.8113 52.1804 87.4005C52.2745 87.1967 52.3215 87.036 52.3215 86.9184L53.2978 87.083C53.2978 86.7617 53.3919 86.601 53.58 86.601ZM64.9066 87.2476C64.9066 87.4592 64.8165 87.5651 64.6361 87.5651L64.495 87.2476C64.5185 87.0282 64.6126 86.9184 64.7773 86.9184L64.9066 87.2476ZM64.6361 92.891L64.7773 93.2202V96.6062H64.6361C64.4479 96.6062 64.3538 96.4965 64.3538 96.277V93.2202C64.3852 93.0007 64.4793 92.891 64.6361 92.891ZM59.3198 93.7022H59.5903L59.7315 94.3489H59.5903C59.41 94.3489 59.3198 94.2391 59.3198 94.0197V93.7022ZM25.8222 86.8596C25.6497 86.7969 25.4223 86.7656 25.1401 86.7656C24.8735 86.7656 24.6774 86.7969 24.552 86.8596C24.3795 86.8283 24.2344 86.8126 24.1168 86.8126H23.3405C23.2856 86.8126 23.2503 86.844 23.2346 86.9067V86.9655L23.5757 87.0125H24.0227L23.9756 87.1065C23.8345 87.1065 23.5052 87.0752 22.9876 87.0125C22.7681 87.0438 22.623 87.0752 22.5525 87.1065C22.5525 87.0752 22.5368 87.0595 22.5054 87.0595H22.4584C22.4584 87.0909 22.4427 87.1379 22.4113 87.2006C22.4113 87.3025 22.4584 87.3534 22.5525 87.3534V88.2822C22.5525 88.5017 22.5681 88.6977 22.5995 88.8701C22.5681 89.0347 22.5525 89.2267 22.5525 89.4462V90.9628C22.4192 90.9628 22.3525 91.0922 22.3525 91.3508C22.3525 91.4214 22.3878 91.4566 22.4584 91.4566L22.5525 91.4096V91.5507C22.5211 91.5507 22.5054 91.535 22.5054 91.5037C22.4505 91.5037 22.4192 91.535 22.4113 91.5977V91.6448L22.4584 91.7506C22.4113 91.7506 22.3604 92.2365 22.3055 93.2084C22.3604 93.6003 22.427 93.7963 22.5054 93.7963V94.4312C22.5368 94.7055 22.5525 94.9171 22.5525 95.0661C22.5525 95.3874 22.5211 95.6304 22.4584 95.795L22.5054 96.0889V96.136C22.5054 96.2535 22.4897 96.4024 22.4584 96.5827C22.4897 96.6454 22.5054 96.6925 22.5054 96.7238C22.4427 97.296 22.4113 98.0288 22.4113 98.9224V99.1222L22.3055 99.0752C22.2506 99.0752 22.2192 99.1066 22.2114 99.1693V99.8042C22.2114 99.8669 22.2584 99.8982 22.3525 99.8982V100.286C22.3525 100.999 22.3211 101.521 22.2584 101.85C22.3211 101.85 22.3525 101.885 22.3525 101.956V103.461C22.3525 103.594 22.9563 103.66 24.1638 103.66V103.707C24.0462 103.707 23.9011 103.723 23.7286 103.755C23.6894 103.755 23.5248 103.739 23.2346 103.707L22.8936 103.755C22.7759 103.723 22.6309 103.707 22.4584 103.707H22.4113V103.86C23.4934 103.892 24.1089 103.939 24.2579 104.001C24.4383 103.97 24.5873 103.954 24.7049 103.954H25.34L25.6811 103.907C25.6811 103.939 25.7125 103.954 25.7752 103.954C25.8144 103.954 25.8654 103.939 25.9281 103.907L26.0222 103.954C26.1241 103.892 26.2378 103.841 26.3633 103.802C26.3633 103.841 26.379 103.86 26.4103 103.86H27.8335L28.0687 103.802V103.707C27.9982 103.707 27.8217 103.692 27.5395 103.66L27.4336 103.707C27.4336 103.676 27.3356 103.66 27.1396 103.66V103.613H29.8801C30.1545 103.613 30.5622 103.629 31.1033 103.66C31.2287 103.559 31.2915 103.492 31.2915 103.461V103.225C31.3934 103.225 31.4444 103.19 31.4444 103.12V102.979C31.4444 102.79 31.4601 102.528 31.4914 102.191L31.3973 101.897C31.4287 101.897 31.4444 101.881 31.4444 101.85V101.556C31.4444 101.399 31.0876 101.321 30.374 101.321H30.08C29.1861 101.321 28.453 101.352 27.8806 101.415C27.6688 101.384 27.3905 101.368 27.0455 101.368H26.9984C26.9984 101.329 26.9827 101.278 26.9514 101.215C26.873 101.215 26.8063 101.231 26.7514 101.262L26.4574 101.215H25.9281C25.8575 101.215 25.8222 101.266 25.8222 101.368H25.634V101.074H25.6811L25.8693 100.78C25.8379 100.294 25.8222 99.9374 25.8222 99.7101V98.8283C25.8222 98.7578 25.7752 98.7225 25.6811 98.7225V98.4403C25.7752 98.4403 25.8222 98.3228 25.8222 98.0876V97.7467H25.7752L25.6811 97.8055V96.6297C25.7752 96.6297 25.8889 96.6141 26.0222 96.5827L26.1633 96.6768H26.7514C27.0023 96.6768 27.2297 96.6925 27.4336 96.7238C27.5983 96.6925 27.81 96.6768 28.0687 96.6768H28.4686C28.5314 96.6768 28.5627 96.6454 28.5627 96.5827C28.6804 96.5827 28.8254 96.5984 28.9979 96.6297C29.0685 96.6297 29.1038 96.5984 29.1038 96.5357L28.9979 96.3828V96.2888C29.0999 96.2888 29.1508 96.2574 29.1508 96.1947V95.6539C29.1508 95.599 29.1822 95.5677 29.2449 95.5599L29.1508 95.407L29.2449 95.2659V93.7963C29.2449 93.7414 29.2136 93.7101 29.1508 93.7022C29.0959 93.7022 29.0606 93.7336 29.045 93.7963C28.9038 93.7022 28.7901 93.6552 28.7039 93.6552C28.6255 93.6552 28.4961 93.6709 28.3157 93.7022C28.3157 93.6709 28.3314 93.6552 28.3628 93.6552C28.3628 93.5455 27.5826 93.4789 26.0222 93.4553C25.983 93.4867 25.8693 93.5024 25.6811 93.5024V92.8675C25.6811 92.7969 25.6968 92.7342 25.7281 92.6794C25.6968 92.6167 25.6811 92.5501 25.6811 92.4795V91.5507L25.7281 90.9628C25.6968 90.9628 25.6811 90.9001 25.6811 90.7747C25.8066 90.7747 25.8889 90.4965 25.9281 89.94L25.7281 89.552V89.4462C25.7987 89.4462 25.8654 89.4305 25.9281 89.3992C26.1476 89.4305 26.3241 89.4462 26.4574 89.4462H27.6806L27.9276 89.3992C27.9276 89.4305 28.1236 89.4658 28.5157 89.505C28.5157 89.4658 28.5627 89.4305 28.6568 89.3992C28.8372 89.3992 29.1155 89.4344 29.4919 89.505C29.9467 89.4658 30.3858 89.4462 30.8092 89.4462H31.1033C31.166 89.4462 31.1974 89.3835 31.1974 89.2581H31.2444C31.2444 89.2894 31.2601 89.3365 31.2915 89.3992C31.362 89.3992 31.3973 89.3678 31.3973 89.3051V88.5291H31.3503C31.2797 88.5291 31.2444 88.5918 31.2444 88.7173H31.1974V88.6232C31.1974 88.247 31.2131 87.808 31.2444 87.3064C31.2444 87.2515 31.1817 87.2006 31.0562 87.1536C29.9585 87.1849 29.3233 87.2006 29.1508 87.2006C29.0018 87.2006 28.7901 87.1849 28.5157 87.1536C28.3902 87.1849 28.2608 87.2006 28.1275 87.2006L27.6336 87.1536C27.5708 87.1849 27.5238 87.2006 27.4924 87.2006C27.265 87.1692 27.0847 87.1536 26.9514 87.1536C26.8338 87.1536 26.6848 87.1692 26.5044 87.2006C26.3084 87.1379 26.179 87.1065 26.1163 87.1065C25.9359 87.1379 25.8066 87.1536 25.7281 87.1536H25.6811V87.0125C25.8458 87.0125 26.0888 86.9968 26.4103 86.9655V86.8596L26.1633 86.8126C26.0692 86.8126 25.9555 86.8283 25.8222 86.8596ZM28.5627 96.5827L28.3157 96.5357H27.1396C27.0847 96.5357 27.0533 96.5004 27.0455 96.4299L27.3866 96.4769H27.9746L28.5627 96.4299V96.5827ZM27.3866 86.7656H27.3395C27.3395 86.8753 27.0455 86.9576 26.4574 87.0125C26.4574 87.0752 26.4927 87.1065 26.5632 87.1065H28.2687L28.3628 87.0595C28.3628 86.9576 28.0531 86.9067 27.4336 86.9067C27.4336 86.8753 27.4532 86.8596 27.4924 86.8596C27.4924 86.8048 27.4571 86.7734 27.3866 86.7656ZM29.539 86.8126H29.4919V86.9655H29.539L29.6331 86.9067C29.6331 86.8518 29.6017 86.8204 29.539 86.8126ZM31.1503 88.9641C31.1817 88.9093 31.1974 88.8427 31.1974 88.7643H31.2444V89.1052H31.1974C31.1974 89.0739 31.1817 89.0269 31.1503 88.9641ZM22.5054 88.9171L22.4584 88.8113C22.3486 88.8113 22.2819 89.2855 22.2584 90.2339C22.2976 90.2339 22.329 90.2966 22.3525 90.422C22.3211 90.4847 22.3055 90.5514 22.3055 90.6219L22.3525 90.716L22.5054 90.6219C22.5054 90.473 22.4897 90.375 22.4584 90.328C22.4897 89.9753 22.5054 89.6657 22.5054 89.3992V88.9171ZM25.9751 90.8688C25.9438 90.8688 25.9281 90.8531 25.9281 90.8218L25.7752 90.9158L25.8222 91.2568V91.4096C25.8222 91.4958 25.7909 91.5899 25.7281 91.6918C25.7595 91.9348 25.7909 92.0837 25.8222 92.1386L25.7752 92.2326C25.7752 92.3188 25.7909 92.4482 25.8222 92.6206L25.7752 93.1144C25.7752 93.1614 25.8066 93.2241 25.8693 93.3025C25.9399 93.3025 25.9751 93.2711 25.9751 93.2084V93.1614C25.9751 92.7852 25.9399 92.5265 25.8693 92.3855C25.9085 92.3855 25.9281 92.3659 25.9281 92.3267V91.8446C25.9281 91.633 25.9438 91.3077 25.9751 90.8688ZM28.9979 95.2659V94.2313H29.045V95.0661L29.1038 95.2659H28.9979ZM22.3525 98.8753L22.3055 98.7813C22.2506 98.7813 22.2192 98.8126 22.2114 98.8753V98.9224L22.2584 99.0164C22.3211 99.0164 22.3525 98.9851 22.3525 98.9224V98.8753ZM25.634 99.7101V99.5102H25.6811V99.7101H25.634ZM29.9741 103.755L29.2449 103.66C29.041 103.692 28.8137 103.707 28.5627 103.707H28.2687L28.1746 103.755L28.2216 103.86C28.253 103.86 28.2687 103.841 28.2687 103.802L28.5157 103.86H29.539L29.6801 103.954H29.7389C29.8957 103.868 29.9741 103.802 29.9741 103.755ZM16.6128 87.7414C14.9112 87.2241 13.7272 86.9655 13.0607 86.9655C13.0293 87.0282 13.0137 87.0752 13.0137 87.1065H11.8963C11.5199 87.1065 10.924 87.1261 10.1085 87.1653L10.1555 87.0595V87.0125C9.60666 87.0125 9.33222 87.0634 9.33222 87.1653V87.2123H9.72036V87.2594C9.39103 87.2594 9.22636 87.2907 9.22636 87.3534V87.4475L9.28517 87.5533C9.24596 87.5533 9.22636 87.569 9.22636 87.6003V90.4573H9.17931V90.2104H9.08522V91.0451H9.17931V90.6572L9.28517 90.7042C9.28517 90.7355 9.26557 90.7826 9.22636 90.8453L9.28517 90.9393L9.22636 91.2333L9.28517 91.3273L9.08522 91.5272V92.1621C9.08522 92.2248 9.11659 92.2561 9.17931 92.2561L9.28517 92.2091C9.28517 92.2796 9.26557 92.456 9.22636 92.7382C9.22636 92.793 9.26165 92.8753 9.33222 92.9851C9.30085 92.9851 9.28517 93.1457 9.28517 93.4671L9.17931 93.4201L9.08522 93.4671C9.08522 93.6709 9.1009 94.0902 9.13227 94.7251L9.08522 95.2189C9.08522 95.2816 9.1009 95.313 9.13227 95.313C9.13227 95.9243 9.19892 96.23 9.33222 96.23L9.42631 97.8878H9.28517C9.28517 98.2169 9.26557 98.4756 9.22636 98.6637C9.22636 98.938 9.29301 99.2594 9.42631 99.6278V101.615C9.42631 102.093 9.44199 102.739 9.47336 103.555C9.53609 103.641 9.84189 103.723 10.3908 103.802C11.7865 103.77 13.2136 103.657 14.6721 103.461L14.7191 103.555C14.8759 103.555 14.9543 103.492 14.9543 103.367C14.97 103.367 15.021 103.398 15.1073 103.461H15.1543L15.4483 103.272H15.6365C15.6993 103.272 15.7306 103.304 15.7306 103.367C16.4442 103.092 16.8323 102.912 16.895 102.826C17.8987 102.222 18.4829 101.771 18.6475 101.474C18.6475 101.442 18.6319 101.395 18.6005 101.333C18.9534 101.082 19.2592 100.741 19.5179 100.31C19.8786 100.114 20.2354 99.7258 20.5882 99.1458C21.1999 97.7036 21.5057 96.473 21.5057 95.454V95.313C21.5057 95.2581 21.4743 95.2267 21.4116 95.2189L21.4586 94.7251C21.3018 93.6278 21.1254 92.8048 20.9293 92.2561V92.2091C20.9293 92.1542 20.9607 92.119 21.0234 92.1033C21.0234 92.0327 21.0077 91.97 20.9764 91.9152C20.4981 91.0138 20.0119 90.3358 19.5179 89.8812L19.4238 89.9282V89.7284H19.3768L19.2827 89.7754C18.8749 89.3286 18.5966 89.07 18.4476 88.9994L18.5064 88.9054V88.8583C17.5419 88.1686 16.9107 87.7963 16.6128 87.7414ZM12.3903 90.2104C12.5471 90.2104 12.6255 90.1163 12.6255 89.9282C13.2058 89.9596 13.5312 90.0066 13.6017 90.0693C13.6566 90.038 13.7194 90.0223 13.7899 90.0223L13.9428 90.1163H14.5192C14.974 90.2182 15.2013 90.3005 15.2013 90.3632H15.1073V90.4573C15.8992 90.8022 16.4951 91.1902 16.895 91.6212L16.848 91.7153C17.3969 92.5618 17.6713 93.0987 17.6713 93.326H17.8242C17.8164 93.0987 17.7027 92.7891 17.4831 92.3972C17.5145 92.3972 17.5302 92.3815 17.5302 92.3502C17.8517 92.601 18.0477 93.4906 18.1183 95.019C18.0477 95.1131 17.981 95.5481 17.9183 96.3241C17.6831 97.1862 17.1969 97.9975 16.4599 98.7578C16.4285 98.7578 16.3814 98.7421 16.3187 98.7107L15.2484 99.4397C14.6995 99.6356 14.4251 99.812 14.4251 99.9687C14.0722 100.016 13.8958 100.078 13.8958 100.157L13.9428 100.263C13.7782 100.263 13.4528 100.31 12.9666 100.404L12.5314 100.357C12.4216 100.388 12.355 100.404 12.3315 100.404V99.2868C12.4334 99.2868 12.4844 99.2555 12.4844 99.1928V98.7107L12.4373 98.6049C12.4844 98.6049 12.5157 98.4286 12.5314 98.0759C12.5314 97.5586 12.4844 97.2999 12.3903 97.2999C12.4216 96.4691 12.4373 95.9988 12.4373 95.8891C12.4373 95.7245 12.4216 95.4501 12.3903 95.0661L12.4373 94.7721L12.3903 94.49C12.4844 94.49 12.5314 94.4547 12.5314 94.3842V93.326C12.5314 92.9811 12.5471 92.6245 12.5785 92.2561C12.5236 91.1902 12.4609 90.6572 12.3903 90.6572V90.2104ZM12.6255 95.795L12.5785 95.7009C12.5236 95.7009 12.4922 95.7323 12.4844 95.795V96.0419H12.5314C12.5942 96.0419 12.6255 96.0066 12.6255 95.9361V95.795ZM17.7301 96.665H17.5772C17.5772 96.7356 17.4792 96.9629 17.2832 97.3469L17.342 97.441L17.7301 96.712V96.665ZM35.1611 86.7656C35.4434 86.7656 35.6708 86.7969 35.8433 86.8596C35.9766 86.8283 36.0903 86.8126 36.1844 86.8126L36.4314 86.8596V86.9655C36.1099 86.9968 35.8668 87.0125 35.7021 87.0125V87.1536H35.7492C35.8276 87.1536 35.957 87.1379 36.1373 87.1065C36.2001 87.1065 36.3294 87.1379 36.5255 87.2006C36.7058 87.1692 36.8548 87.1536 36.9724 87.1536C37.1057 87.1536 37.2861 87.1692 37.5135 87.2006C37.5448 87.2006 37.5919 87.1849 37.6546 87.1536L38.1486 87.2006C38.2819 87.2006 38.4113 87.1849 38.5367 87.1536C38.8112 87.1849 39.0229 87.2006 39.1719 87.2006C39.3444 87.2006 39.9795 87.1849 41.0773 87.1536C41.2027 87.2006 41.2655 87.2515 41.2655 87.3064C41.2341 87.808 41.2184 88.247 41.2184 88.6232V88.7173H41.2655C41.2655 88.5918 41.3007 88.5291 41.3713 88.5291H41.4184V89.3051C41.4184 89.3678 41.3831 89.3992 41.3125 89.3992C41.2811 89.3365 41.2655 89.2894 41.2655 89.2581H41.2184C41.2184 89.3835 41.187 89.4462 41.1243 89.4462H40.8303C40.4068 89.4462 39.9677 89.4658 39.513 89.505C39.1366 89.4344 38.8582 89.3992 38.6779 89.3992C38.5838 89.4305 38.5367 89.4658 38.5367 89.505C38.1447 89.4658 37.9486 89.4305 37.9486 89.3992L37.7016 89.4462H36.4784C36.3451 89.4462 36.1687 89.4305 35.9491 89.3992C35.8864 89.4305 35.8198 89.4462 35.7492 89.4462V89.552L35.9491 89.94C35.9099 90.4965 35.8276 90.7747 35.7021 90.7747C35.7021 90.9001 35.7178 90.9628 35.7492 90.9628L35.7021 91.5507V92.4795C35.7021 92.5501 35.7178 92.6167 35.7492 92.6794C35.7178 92.7342 35.7021 92.7969 35.7021 92.8675V93.5024C35.8903 93.5024 36.004 93.4867 36.0432 93.4553C37.6036 93.4789 38.3838 93.5455 38.3838 93.6552C38.3525 93.6552 38.3368 93.6709 38.3368 93.7022C38.5171 93.6709 38.6465 93.6552 38.7249 93.6552C38.8112 93.6552 38.9249 93.7022 39.066 93.7963C39.0817 93.7336 39.117 93.7022 39.1719 93.7022C39.2346 93.7101 39.266 93.7414 39.266 93.7963V95.2659L39.1719 95.407L39.266 95.5599C39.2032 95.5677 39.1719 95.599 39.1719 95.6539V96.1947C39.1719 96.2574 39.1209 96.2888 39.019 96.2888V96.3828L39.1248 96.5357C39.1248 96.5984 39.0895 96.6297 39.019 96.6297C38.8465 96.5984 38.7014 96.5827 38.5838 96.5827V96.4299L37.9957 96.4769H37.4076L37.0665 96.4299C37.0743 96.5004 37.1057 96.5357 37.1606 96.5357H38.3368L38.5838 96.5827C38.5838 96.6454 38.5524 96.6768 38.4897 96.6768H38.0898C37.831 96.6768 37.6193 96.6925 37.4546 96.7238C37.2508 96.6925 37.0234 96.6768 36.7725 96.6768H36.1844L36.0432 96.5827C35.9099 96.6141 35.7962 96.6297 35.7021 96.6297V97.8055L35.7962 97.7467H35.8433V98.0876C35.8433 98.3228 35.7962 98.4403 35.7021 98.4403V98.7225C35.7962 98.7225 35.8433 98.7578 35.8433 98.8283V99.7101C35.8433 99.9374 35.859 100.294 35.8903 100.78L35.7021 101.074H35.6551V101.368H35.8433C35.8433 101.266 35.8786 101.215 35.9491 101.215L35.855 102.579L35.9491 103.907C35.8864 103.939 35.8354 103.954 35.7962 103.954C35.7335 103.954 35.7021 103.939 35.7021 103.907L35.361 103.954H34.7259C34.6083 103.954 34.4593 103.97 34.279 104.001C34.13 103.939 33.5144 103.892 32.4324 103.86V103.707H32.4794C32.6519 103.707 32.797 103.723 32.9146 103.755L33.2557 103.707C33.5458 103.739 33.7105 103.755 33.7497 103.755C33.9222 103.723 34.0672 103.707 34.1849 103.707V103.66C32.9773 103.66 32.3736 103.594 32.3736 103.461V101.956C32.3736 101.885 32.3422 101.85 32.2795 101.85C32.3422 101.521 32.3736 100.999 32.3736 100.286V99.8982C32.2795 99.8982 32.2324 99.8669 32.2324 99.8042V99.1693C32.2403 99.1066 32.2716 99.0752 32.3265 99.0752L32.4324 99.1222V98.9224C32.4324 98.0288 32.4637 97.296 32.5265 96.7238C32.5265 96.6925 32.5108 96.6454 32.4794 96.5827C32.5108 96.4024 32.5265 96.2535 32.5265 96.136V96.0889L32.4794 95.795C32.5421 95.6304 32.5735 95.3874 32.5735 95.0661C32.5735 94.9171 32.5578 94.7055 32.5265 94.4312V93.7963C32.448 93.7963 32.3814 93.6003 32.3265 93.2084C32.3814 92.2365 32.4324 91.7506 32.4794 91.7506L32.4324 91.6448V91.5977C32.4402 91.535 32.4716 91.5037 32.5265 91.5037C32.5265 91.535 32.5421 91.5507 32.5735 91.5507V91.4096L32.4794 91.4566C32.4088 91.4566 32.3736 91.4214 32.3736 91.3508C32.3736 91.0922 32.4402 90.9628 32.5735 90.9628V89.4462C32.5735 89.2267 32.5892 89.0347 32.6205 88.8701C32.5892 88.6977 32.5735 88.5017 32.5735 88.2822V87.3534C32.4794 87.3534 32.4324 87.3025 32.4324 87.2006C32.4637 87.1379 32.4794 87.0909 32.4794 87.0595H32.5265C32.5578 87.0595 32.5735 87.0752 32.5735 87.1065C32.6441 87.0752 32.7891 87.0438 33.0087 87.0125C33.5262 87.0752 33.8555 87.1065 33.9967 87.1065L34.0437 87.0125H33.5968L33.2557 86.9655V86.9067C33.2714 86.844 33.3067 86.8126 33.3615 86.8126H34.1378C34.2554 86.8126 34.4005 86.8283 34.573 86.8596C34.6985 86.7969 34.8945 86.7656 35.1611 86.7656ZM37.3605 86.7656H37.4076C37.4782 86.7734 37.5135 86.8048 37.5135 86.8596C37.4742 86.8596 37.4546 86.8753 37.4546 86.9067C38.0741 86.9067 38.3838 86.9576 38.3838 87.0595L38.2897 87.1065H36.5843C36.5137 87.1065 36.4784 87.0752 36.4784 87.0125C37.0665 86.9576 37.3605 86.8753 37.3605 86.7656ZM39.513 86.8126H39.56C39.6227 86.8204 39.6541 86.8518 39.6541 86.9067L39.56 86.9655H39.513V86.8126ZM41.2184 88.7643C41.2184 88.8427 41.2027 88.9093 41.1714 88.9641C41.2027 89.0269 41.2184 89.0739 41.2184 89.1052H41.2655V88.7643H41.2184ZM32.4794 88.8113L32.5265 88.9171V89.3992C32.5265 89.6657 32.5108 89.9753 32.4794 90.328C32.5108 90.375 32.5265 90.473 32.5265 90.6219L32.3736 90.716L32.3265 90.6219C32.3265 90.5514 32.3422 90.4847 32.3736 90.422C32.35 90.2966 32.3187 90.2339 32.2795 90.2339C32.303 89.2855 32.3696 88.8113 32.4794 88.8113ZM35.9491 90.8218C35.9491 90.8531 35.9648 90.8688 35.9962 90.8688C35.9648 91.3077 35.9491 91.633 35.9491 91.8446V92.3267C35.9491 92.3659 35.9295 92.3855 35.8903 92.3855C35.9609 92.5265 35.9962 92.7852 35.9962 93.1614V93.2084C35.9962 93.2711 35.9609 93.3025 35.8903 93.3025C35.8276 93.2241 35.7962 93.1614 35.7962 93.1144L35.8433 92.6206C35.8119 92.4482 35.7962 92.3188 35.7962 92.2326L35.8433 92.1386C35.8119 92.0837 35.7805 91.9348 35.7492 91.6918C35.8119 91.5899 35.8433 91.4958 35.8433 91.4096V91.2568L35.7962 90.9158L35.9491 90.8218ZM39.019 94.2313V95.2659H39.1248L39.066 95.0661V94.2313H39.019ZM32.3736 98.8753V98.9224C32.3736 98.9851 32.3422 99.0164 32.2795 99.0164L32.2324 98.9224V98.8753C32.2403 98.8126 32.2716 98.7813 32.3265 98.7813L32.3736 98.8753ZM35.6551 99.5102V99.7101H35.7021V99.5102H35.6551ZM45.4879 86.8596C45.3154 86.7969 45.088 86.7656 44.8058 86.7656C44.5392 86.7656 44.3431 86.7969 44.2177 86.8596C44.0452 86.8283 43.9001 86.8126 43.7825 86.8126H43.0062C42.9513 86.8126 42.916 86.844 42.9003 86.9067V86.9655L43.2414 87.0125H43.6884L43.6413 87.1065C43.5002 87.1065 43.1709 87.0752 42.6534 87.0125C42.4338 87.0438 42.2887 87.0752 42.2182 87.1065C42.2182 87.0752 42.2025 87.0595 42.1711 87.0595H42.1241C42.1241 87.0909 42.1084 87.1379 42.077 87.2006C42.077 87.3025 42.1241 87.3534 42.2182 87.3534V88.2822C42.2182 88.5017 42.2338 88.6977 42.2652 88.8701C42.2338 89.0347 42.2182 89.2267 42.2182 89.4462V90.9628C42.0849 90.9628 42.0182 91.0922 42.0182 91.3508C42.0182 91.4214 42.0535 91.4566 42.1241 91.4566L42.2182 91.4096V91.5507C42.1868 91.5507 42.1711 91.535 42.1711 91.5037C42.1162 91.5037 42.0849 91.535 42.077 91.5977V91.6448L42.1241 91.7506C42.077 91.7506 42.0261 92.2365 41.9712 93.2084C42.0261 93.6003 42.0927 93.7963 42.1711 93.7963V94.4312C42.2025 94.7055 42.2182 94.9171 42.2182 95.0661C42.2182 95.3874 42.1868 95.6304 42.1241 95.795L42.1711 96.0889V96.136C42.1711 96.2535 42.1554 96.4024 42.1241 96.5827C42.1554 96.6454 42.1711 96.6925 42.1711 96.7238C42.1084 97.296 42.077 98.0288 42.077 98.9224V99.1222L41.9712 99.0752C41.9163 99.0752 41.8849 99.1066 41.8771 99.1693V99.8042C41.8771 99.8669 41.9241 99.8982 42.0182 99.8982V100.286C42.0182 100.999 41.9868 101.521 41.9241 101.85C41.9868 101.85 42.0182 101.885 42.0182 101.956V103.461C42.0182 103.594 42.622 103.66 43.8295 103.66V103.707C43.7119 103.707 43.5668 103.723 43.3943 103.755C43.3551 103.755 43.1905 103.739 42.9003 103.707L42.5593 103.755C42.4416 103.723 42.2966 103.707 42.1241 103.707H42.077V103.86C43.1591 103.892 43.7746 103.939 43.9236 104.001C44.104 103.97 44.253 103.954 44.3706 103.954H45.0057L45.3468 103.907C45.3468 103.939 45.3782 103.954 45.4409 103.954C45.4801 103.954 45.5311 103.939 45.5938 103.907L45.6879 103.954C45.7898 103.892 45.9035 103.841 46.029 103.802C46.029 103.841 46.0447 103.86 46.076 103.86H47.4992L47.7344 103.802V103.707C47.6639 103.707 47.4874 103.692 47.2052 103.66L47.0993 103.707C47.0993 103.676 47.0013 103.66 46.8053 103.66V103.613H49.5458C49.8202 103.613 50.2279 103.629 50.769 103.66C50.8944 103.559 50.9572 103.492 50.9572 103.461V103.225C51.0591 103.225 51.1101 103.19 51.1101 103.12V102.979C51.1101 102.79 51.1258 102.528 51.1571 102.191L51.063 101.897C51.0944 101.897 51.1101 101.881 51.1101 101.85V101.556C51.1101 101.399 50.7533 101.321 50.0397 101.321H49.7457C48.8518 101.321 48.1187 101.352 47.5463 101.415C47.3345 101.384 47.0562 101.368 46.7112 101.368H46.6641C46.6641 101.329 46.6484 101.278 46.6171 101.215C46.5387 101.215 46.472 101.231 46.4171 101.262L46.1231 101.215H45.5938C45.5232 101.215 45.4879 101.266 45.4879 101.368H45.2998V101.074H45.3468L45.535 100.78C45.5036 100.294 45.4879 99.9374 45.4879 99.7101V98.8283C45.4879 98.7578 45.4409 98.7225 45.3468 98.7225V98.4403C45.4409 98.4403 45.4879 98.3228 45.4879 98.0876V97.7467H45.4409L45.3468 97.8055V96.6297C45.4409 96.6297 45.5546 96.6141 45.6879 96.5827L45.829 96.6768H46.4171C46.668 96.6768 46.8954 96.6925 47.0993 96.7238C47.264 96.6925 47.4757 96.6768 47.7344 96.6768H48.1343C48.1971 96.6768 48.2284 96.6454 48.2284 96.5827C48.3461 96.5827 48.4911 96.5984 48.6636 96.6297C48.7342 96.6297 48.7695 96.5984 48.7695 96.5357L48.6636 96.3828V96.2888C48.7656 96.2888 48.8165 96.2574 48.8165 96.1947V95.6539C48.8165 95.599 48.8479 95.5677 48.9106 95.5599L48.8165 95.407L48.9106 95.2659V93.7963C48.9106 93.7414 48.8793 93.7101 48.8165 93.7022C48.7616 93.7022 48.7264 93.7336 48.7107 93.7963C48.5695 93.7022 48.4558 93.6552 48.3696 93.6552C48.2912 93.6552 48.1618 93.6709 47.9814 93.7022C47.9814 93.6709 47.9971 93.6552 48.0285 93.6552C48.0285 93.5455 47.2483 93.4789 45.6879 93.4553C45.6487 93.4867 45.535 93.5024 45.3468 93.5024V92.8675C45.3468 92.7969 45.3625 92.7342 45.3938 92.6794C45.3625 92.6167 45.3468 92.5501 45.3468 92.4795V91.5507L45.3938 90.9628C45.3625 90.9628 45.3468 90.9001 45.3468 90.7747C45.4723 90.7747 45.5546 90.4965 45.5938 89.94L45.3938 89.552V89.4462C45.4644 89.4462 45.5311 89.4305 45.5938 89.3992C45.8134 89.4305 45.9898 89.4462 46.1231 89.4462H47.3463L47.5933 89.3992C47.5933 89.4305 47.7893 89.4658 48.1814 89.505C48.1814 89.4658 48.2284 89.4305 48.3225 89.3992C48.5029 89.3992 48.7812 89.4344 49.1576 89.505C49.6124 89.4658 50.0515 89.4462 50.4749 89.4462H50.769C50.8317 89.4462 50.8631 89.3835 50.8631 89.2581H50.9101C50.9101 89.2894 50.9258 89.3365 50.9572 89.3992C51.0277 89.3992 51.063 89.3678 51.063 89.3051V88.5291H51.016C50.9454 88.5291 50.9101 88.5918 50.9101 88.7173H50.8631V88.6232C50.8631 88.247 50.8788 87.808 50.9101 87.3064C50.9101 87.2515 50.8474 87.2006 50.7219 87.1536C49.6242 87.1849 48.989 87.2006 48.8165 87.2006C48.6675 87.2006 48.4558 87.1849 48.1814 87.1536C48.0559 87.1849 47.9266 87.2006 47.7932 87.2006L47.2993 87.1536C47.2365 87.1849 47.1895 87.2006 47.1581 87.2006C46.9307 87.1692 46.7504 87.1536 46.6171 87.1536C46.4995 87.1536 46.3505 87.1692 46.1701 87.2006C45.9741 87.1379 45.8447 87.1065 45.782 87.1065C45.6016 87.1379 45.4723 87.1536 45.3938 87.1536H45.3468V87.0125C45.5115 87.0125 45.7545 86.9968 46.076 86.9655V86.8596L45.829 86.8126C45.7349 86.8126 45.6212 86.8283 45.4879 86.8596ZM48.2284 96.5827L47.9814 96.5357H46.8053C46.7504 96.5357 46.719 96.5004 46.7112 96.4299L47.0523 96.4769H47.6403L48.2284 96.4299V96.5827ZM47.0523 86.7656H47.0052C47.0052 86.8753 46.7112 86.9576 46.1231 87.0125C46.1231 87.0752 46.1584 87.1065 46.2289 87.1065H47.9344L48.0285 87.0595C48.0285 86.9576 47.7188 86.9067 47.0993 86.9067C47.0993 86.8753 47.1189 86.8596 47.1581 86.8596C47.1581 86.8048 47.1228 86.7734 47.0523 86.7656ZM49.2047 86.8126H49.1576V86.9655H49.2047L49.2988 86.9067C49.2988 86.8518 49.2674 86.8204 49.2047 86.8126ZM50.816 88.9641C50.8474 88.9093 50.8631 88.8427 50.8631 88.7643H50.9101V89.1052H50.8631C50.8631 89.0739 50.8474 89.0269 50.816 88.9641ZM42.1711 88.9171L42.1241 88.8113C42.0143 88.8113 41.9476 89.2855 41.9241 90.2339C41.9633 90.2339 41.9947 90.2966 42.0182 90.422C41.9868 90.4847 41.9712 90.5514 41.9712 90.6219L42.0182 90.716L42.1711 90.6219C42.1711 90.473 42.1554 90.375 42.1241 90.328C42.1554 89.9753 42.1711 89.6657 42.1711 89.3992V88.9171ZM45.6408 90.8688C45.6095 90.8688 45.5938 90.8531 45.5938 90.8218L45.4409 90.9158L45.4879 91.2568V91.4096C45.4879 91.4958 45.4566 91.5899 45.3938 91.6918C45.4252 91.9348 45.4566 92.0837 45.4879 92.1386L45.4409 92.2326C45.4409 92.3188 45.4566 92.4482 45.4879 92.6206L45.4409 93.1144C45.4409 93.1614 45.4723 93.2241 45.535 93.3025C45.6056 93.3025 45.6408 93.2711 45.6408 93.2084V93.1614C45.6408 92.7852 45.6056 92.5265 45.535 92.3855C45.5742 92.3855 45.5938 92.3659 45.5938 92.3267V91.8446C45.5938 91.633 45.6095 91.3077 45.6408 90.8688ZM48.6636 95.2659V94.2313H48.7107V95.0661L48.7695 95.2659H48.6636ZM42.0182 98.9224V98.8753L41.9712 98.7813C41.9163 98.7813 41.8849 98.8126 41.8771 98.8753V98.9224L41.9241 99.0164C41.9868 99.0164 42.0182 98.9851 42.0182 98.9224ZM45.2998 99.7101V99.5102H45.3468V99.7101H45.2998ZM49.6399 103.755L48.9106 103.66C48.7067 103.692 48.4794 103.707 48.2284 103.707H47.9344L47.8403 103.755L47.8873 103.86C47.9187 103.86 47.9344 103.841 47.9344 103.802L48.1814 103.86H49.2047L49.3458 103.954H49.4046C49.5614 103.868 49.6399 103.802 49.6399 103.755ZM73.3751 87.7414C71.6736 87.2241 70.4896 86.9655 69.8231 86.9655C69.7917 87.0282 69.776 87.0752 69.776 87.1065H68.6587C68.2823 87.1065 67.6863 87.1261 66.8709 87.1653L66.9179 87.0595V87.0125C66.369 87.0125 66.0946 87.0634 66.0946 87.1653V87.2123H66.4827V87.2594C66.1534 87.2594 65.9887 87.2907 65.9887 87.3534V87.4475L66.0475 87.5533C66.0083 87.5533 65.9887 87.569 65.9887 87.6003V90.4573H65.9417V90.2104H65.8476V91.0451H65.9417V90.6572L66.0475 90.7042C66.0475 90.7355 66.0279 90.7826 65.9887 90.8453L66.0475 90.9393L65.9887 91.2333L66.0475 91.3273L65.8476 91.5272V92.1621C65.8476 92.2248 65.8789 92.2561 65.9417 92.2561L66.0475 92.2091C66.0475 92.2796 66.0279 92.456 65.9887 92.7382C65.9887 92.793 66.024 92.8753 66.0946 92.9851C66.0632 92.9851 66.0475 93.1457 66.0475 93.4671L65.9417 93.4201L65.8476 93.4671C65.8476 93.6709 65.8633 94.0902 65.8946 94.7251L65.8476 95.2189C65.8476 95.2816 65.8633 95.313 65.8946 95.313C65.8946 95.9243 65.9613 96.23 66.0946 96.23L66.1887 97.8878H66.0475C66.0475 98.2169 66.0279 98.4756 65.9887 98.6637C65.9887 98.938 66.0554 99.2594 66.1887 99.6278V101.615C66.1887 102.093 66.2044 102.739 66.2357 103.555C66.2985 103.641 66.6043 103.723 67.1531 103.802C68.5489 103.77 69.976 103.657 71.4344 103.461L71.4815 103.555C71.6383 103.555 71.7167 103.492 71.7167 103.367C71.7324 103.367 71.7834 103.398 71.8696 103.461H71.9167L72.2107 103.272H72.3989C72.4616 103.272 72.493 103.304 72.493 103.367C73.2065 103.092 73.5947 102.912 73.6574 102.826C74.6611 102.222 75.2453 101.771 75.4099 101.474C75.4099 101.442 75.3942 101.395 75.3629 101.333C75.7157 101.082 76.0215 100.741 76.2803 100.31C76.641 100.114 76.9978 99.7258 77.3506 99.1458C77.9622 97.7036 78.268 96.473 78.268 95.454V95.313C78.268 95.2581 78.2367 95.2267 78.1739 95.2189L78.221 94.7251C78.0642 93.6278 77.8877 92.8048 77.6917 92.2561V92.2091C77.6917 92.1542 77.7231 92.119 77.7858 92.1033C77.7858 92.0327 77.7701 91.97 77.7387 91.9152C77.2604 91.0138 76.7743 90.3358 76.2803 89.8812L76.1862 89.9282V89.7284H76.1391L76.0451 89.7754C75.6373 89.3286 75.3589 89.07 75.21 88.9994L75.2688 88.9054V88.8583C74.3043 88.1686 73.6731 87.7963 73.3751 87.7414ZM69.1526 90.2104C69.3095 90.2104 69.3879 90.1163 69.3879 89.9282C69.9681 89.9596 70.2935 90.0066 70.3641 90.0693C70.419 90.038 70.4817 90.0223 70.5523 90.0223L70.7052 90.1163H71.2815C71.7363 90.2182 71.9637 90.3005 71.9637 90.3632H71.8696V90.4573C72.6616 90.8022 73.2575 91.1902 73.6574 91.6212L73.6104 91.7153C74.1592 92.5618 74.4337 93.0987 74.4337 93.326H74.5866C74.5788 93.0987 74.465 92.7891 74.2455 92.3972C74.2769 92.3972 74.2925 92.3815 74.2925 92.3502C74.614 92.601 74.8101 93.4906 74.8806 95.019C74.8101 95.1131 74.7434 95.5481 74.6807 96.3241C74.4454 97.1862 73.9593 97.9975 73.2222 98.7578C73.1909 98.7578 73.1438 98.7421 73.0811 98.7107L72.0108 99.4397C71.4619 99.6356 71.1874 99.812 71.1874 99.9687C70.8346 100.016 70.6582 100.078 70.6582 100.157L70.7052 100.263C70.5405 100.263 70.2151 100.31 69.729 100.404L69.2938 100.357C69.184 100.388 69.1174 100.404 69.0938 100.404V99.2868C69.1958 99.2868 69.2467 99.2555 69.2467 99.1928V98.7107L69.1997 98.6049C69.2467 98.6049 69.2781 98.4286 69.2938 98.0759C69.2938 97.5586 69.2467 97.2999 69.1526 97.2999C69.184 96.4691 69.1997 95.9988 69.1997 95.8891C69.1997 95.7245 69.184 95.4501 69.1526 95.0661L69.1997 94.7721L69.1526 94.49C69.2467 94.49 69.2938 94.4547 69.2938 94.3842V93.326C69.2938 92.9811 69.3095 92.6245 69.3408 92.2561C69.2859 91.1902 69.2232 90.6572 69.1526 90.6572V90.2104ZM69.3879 95.795L69.3408 95.7009C69.2859 95.7009 69.2546 95.7323 69.2467 95.795V96.0419H69.2938C69.3565 96.0419 69.3879 96.0066 69.3879 95.9361V95.795ZM74.4925 96.665H74.3396C74.3396 96.7356 74.2416 96.9629 74.0455 97.3469L74.1044 97.441L74.4925 96.712V96.665ZM81.9024 86.7656C82.1847 86.7656 82.4121 86.7969 82.5846 86.8596C82.7179 86.8283 82.8316 86.8126 82.9257 86.8126L83.1727 86.8596V86.9655C82.8512 86.9968 82.6081 87.0125 82.4435 87.0125V87.1536H82.4905C82.5689 87.1536 82.6983 87.1379 82.8786 87.1065C82.9414 87.1065 83.0708 87.1379 83.2668 87.2006C83.4471 87.1692 83.5961 87.1536 83.7137 87.1536C83.847 87.1536 84.0274 87.1692 84.2548 87.2006C84.2861 87.2006 84.3332 87.1849 84.3959 87.1536L84.8899 87.2006C85.0232 87.2006 85.1526 87.1849 85.2781 87.1536C85.5525 87.1849 85.7642 87.2006 85.9132 87.2006C86.0857 87.2006 86.7208 87.1849 87.8186 87.1536C87.9441 87.2006 88.0068 87.2515 88.0068 87.3064C87.9754 87.808 87.9597 88.247 87.9597 88.6232V88.7173H88.0068C88.0068 88.5918 88.0421 88.5291 88.1126 88.5291H88.1597V89.3051C88.1597 89.3678 88.1244 89.3992 88.0538 89.3992C88.0225 89.3365 88.0068 89.2894 88.0068 89.2581H87.9597C87.9597 89.3835 87.9284 89.4462 87.8656 89.4462H87.5716C87.1482 89.4462 86.7091 89.4658 86.2543 89.505C85.8779 89.4344 85.5995 89.3992 85.4192 89.3992C85.3251 89.4305 85.2781 89.4658 85.2781 89.505C84.886 89.4658 84.69 89.4305 84.69 89.3992L84.443 89.4462H83.2197C83.0864 89.4462 82.91 89.4305 82.6905 89.3992C82.6277 89.4305 82.5611 89.4462 82.4905 89.4462V89.552L82.6905 89.94C82.6513 90.4965 82.5689 90.7747 82.4435 90.7747C82.4435 90.9001 82.4591 90.9628 82.4905 90.9628L82.4435 91.5507V92.4795C82.4435 92.5501 82.4591 92.6167 82.4905 92.6794C82.4591 92.7342 82.4435 92.7969 82.4435 92.8675V93.5024C82.6317 93.5024 82.7453 93.4867 82.7846 93.4553C84.345 93.4789 85.1251 93.5455 85.1251 93.6552C85.0938 93.6552 85.0781 93.6709 85.0781 93.7022C85.2584 93.6709 85.3878 93.6552 85.4662 93.6552C85.5525 93.6552 85.6662 93.7022 85.8073 93.7963C85.823 93.7336 85.8583 93.7022 85.9132 93.7022C85.9759 93.7101 86.0073 93.7414 86.0073 93.7963V95.2659L85.9132 95.407L86.0073 95.5599C85.9446 95.5677 85.9132 95.599 85.9132 95.6539V96.1947C85.9132 96.2574 85.8622 96.2888 85.7603 96.2888V96.3828L85.8661 96.5357C85.8661 96.5984 85.8309 96.6297 85.7603 96.6297C85.5878 96.5984 85.4427 96.5827 85.3251 96.5827V96.4299L84.737 96.4769H84.1489L83.8078 96.4299C83.8157 96.5004 83.847 96.5357 83.9019 96.5357H85.0781L85.3251 96.5827C85.3251 96.6454 85.2937 96.6768 85.231 96.6768H84.8311C84.5723 96.6768 84.3606 96.6925 84.196 96.7238C83.9921 96.6925 83.7647 96.6768 83.5138 96.6768H82.9257L82.7846 96.5827C82.6513 96.6141 82.5376 96.6297 82.4435 96.6297V97.8055L82.5376 97.7467H82.5846V98.0876C82.5846 98.3228 82.5376 98.4403 82.4435 98.4403V98.7225C82.5376 98.7225 82.5846 98.7578 82.5846 98.8283V99.7101C82.5846 99.9374 82.6003 100.294 82.6317 100.78L82.4435 101.074H82.3964V101.368H82.5846C82.5846 101.266 82.6199 101.215 82.6905 101.215H83.2197L83.5138 101.262C83.5687 101.231 83.6353 101.215 83.7137 101.215C83.7451 101.278 83.7608 101.329 83.7608 101.368H83.8078C84.1528 101.368 84.4312 101.384 84.6429 101.415C85.2153 101.352 85.9485 101.321 86.8424 101.321H87.1364C87.85 101.321 88.2067 101.399 88.2067 101.556V101.85C88.2067 101.881 88.1911 101.897 88.1597 101.897L88.2538 102.191C88.2224 102.528 88.2067 102.79 88.2067 102.979V103.12C88.2067 103.19 88.1558 103.225 88.0538 103.225V103.461C88.0538 103.492 87.9911 103.559 87.8656 103.66C87.3246 103.629 86.9169 103.613 86.6424 103.613H83.9019V103.66C84.098 103.66 84.196 103.676 84.196 103.707L84.3018 103.66C84.5841 103.692 84.7605 103.707 84.8311 103.707V103.802L84.5959 103.86H83.1727C83.1413 103.86 83.1256 103.841 83.1256 103.802C83.0002 103.841 82.8865 103.892 82.7846 103.954L82.6905 103.907C82.6277 103.939 82.5768 103.954 82.5376 103.954C82.4748 103.954 82.4435 103.939 82.4435 103.907L82.1024 103.954H81.4672C81.3496 103.954 81.2006 103.97 81.0203 104.001C80.8713 103.939 80.2558 103.892 79.1737 103.86V103.707H79.2207C79.3932 103.707 79.5383 103.723 79.6559 103.755L79.997 103.707C80.2871 103.739 80.4518 103.755 80.491 103.755C80.6635 103.723 80.8086 103.707 80.9262 103.707V103.66C79.7187 103.66 79.1149 103.594 79.1149 103.461V101.956C79.1149 101.885 79.0835 101.85 79.0208 101.85C79.0835 101.521 79.1149 100.999 79.1149 100.286V99.8982C79.0208 99.8982 78.9737 99.8669 78.9737 99.8042V99.1693C78.9816 99.1066 79.0129 99.0752 79.0678 99.0752L79.1737 99.1222V98.9224C79.1737 98.0288 79.205 97.296 79.2678 96.7238C79.2678 96.6925 79.2521 96.6454 79.2207 96.5827C79.2521 96.4024 79.2678 96.2535 79.2678 96.136V96.0889L79.2207 95.795C79.2835 95.6304 79.3148 95.3874 79.3148 95.0661C79.3148 94.9171 79.2991 94.7055 79.2678 94.4312V93.7963C79.1894 93.7963 79.1227 93.6003 79.0678 93.2084C79.1227 92.2365 79.1737 91.7506 79.2207 91.7506L79.1737 91.6448V91.5977C79.1815 91.535 79.2129 91.5037 79.2678 91.5037C79.2678 91.535 79.2835 91.5507 79.3148 91.5507V91.4096L79.2207 91.4566C79.1502 91.4566 79.1149 91.4214 79.1149 91.3508C79.1149 91.0922 79.1815 90.9628 79.3148 90.9628V89.4462C79.3148 89.2267 79.3305 89.0347 79.3619 88.8701C79.3305 88.6977 79.3148 88.5017 79.3148 88.2822V87.3534C79.2207 87.3534 79.1737 87.3025 79.1737 87.2006C79.205 87.1379 79.2207 87.0909 79.2207 87.0595H79.2678C79.2991 87.0595 79.3148 87.0752 79.3148 87.1065C79.3854 87.0752 79.5305 87.0438 79.75 87.0125C80.2675 87.0752 80.5969 87.1065 80.738 87.1065L80.785 87.0125H80.3381L79.997 86.9655V86.9067C80.0127 86.844 80.048 86.8126 80.1029 86.8126H80.8791C80.9968 86.8126 81.1418 86.8283 81.3143 86.8596C81.4398 86.7969 81.6358 86.7656 81.9024 86.7656ZM84.1019 86.7656H84.1489C84.2195 86.7734 84.2548 86.8048 84.2548 86.8596C84.2156 86.8596 84.196 86.8753 84.196 86.9067C84.8154 86.9067 85.1251 86.9576 85.1251 87.0595L85.0311 87.1065H83.3256C83.255 87.1065 83.2197 87.0752 83.2197 87.0125C83.8078 86.9576 84.1019 86.8753 84.1019 86.7656ZM86.2543 86.8126H86.3013C86.3641 86.8204 86.3954 86.8518 86.3954 86.9067L86.3013 86.9655H86.2543V86.8126ZM87.9597 88.7643C87.9597 88.8427 87.9441 88.9093 87.9127 88.9641C87.9441 89.0269 87.9597 89.0739 87.9597 89.1052H88.0068V88.7643H87.9597ZM79.2207 88.8113L79.2678 88.9171V89.3992C79.2678 89.6657 79.2521 89.9753 79.2207 90.328C79.2521 90.375 79.2678 90.473 79.2678 90.6219L79.1149 90.716L79.0678 90.6219C79.0678 90.5514 79.0835 90.4847 79.1149 90.422C79.0914 90.2966 79.06 90.2339 79.0208 90.2339C79.0443 89.2855 79.111 88.8113 79.2207 88.8113ZM82.6905 90.8218C82.6905 90.8531 82.7061 90.8688 82.7375 90.8688C82.7061 91.3077 82.6905 91.633 82.6905 91.8446V92.3267C82.6905 92.3659 82.6709 92.3855 82.6317 92.3855C82.7022 92.5265 82.7375 92.7852 82.7375 93.1614V93.2084C82.7375 93.2711 82.7022 93.3025 82.6317 93.3025C82.5689 93.2241 82.5376 93.1614 82.5376 93.1144L82.5846 92.6206C82.5532 92.4482 82.5376 92.3188 82.5376 92.2326L82.5846 92.1386C82.5532 92.0837 82.5219 91.9348 82.4905 91.6918C82.5532 91.5899 82.5846 91.4958 82.5846 91.4096V91.2568L82.5376 90.9158L82.6905 90.8218ZM85.7603 94.2313V95.2659H85.8661L85.8073 95.0661V94.2313H85.7603ZM79.1149 98.8753V98.9224C79.1149 98.9851 79.0835 99.0164 79.0208 99.0164L78.9737 98.9224V98.8753C78.9816 98.8126 79.0129 98.7813 79.0678 98.7813L79.1149 98.8753ZM82.3964 99.5102V99.7101H82.4435V99.5102H82.3964ZM86.0073 103.66L86.7365 103.755C86.7365 103.802 86.6581 103.868 86.5013 103.954H86.4425L86.3013 103.86H85.2781L85.0311 103.802C85.0311 103.841 85.0154 103.86 84.984 103.86L84.937 103.755L85.0311 103.707H85.3251C85.576 103.707 85.8034 103.692 86.0073 103.66ZM96.6047 87.8355C94.7228 87.2319 93.7818 86.8596 93.7818 86.7186C93.3113 86.9302 92.4684 87.036 91.253 87.036H89.8416L89.4182 87.3534C89.4182 87.4632 89.4652 87.518 89.5593 87.518C89.5593 87.761 89.5123 87.9766 89.4182 88.1647C89.6064 89.019 89.7005 89.552 89.7005 89.7636V92.3267C89.5123 92.3267 89.4182 91.9504 89.4182 91.198C89.2535 91.198 89.1124 91.4684 88.9948 92.0092L89.1359 93.1261L88.9948 94.0902C89.0889 94.294 89.1359 94.4508 89.1359 94.5605C89.1359 94.9446 89.0889 95.4266 88.9948 96.0066C89.0889 96.4299 89.1359 96.8022 89.1359 97.1235H89.4182V96.3241L89.7005 96.4887L89.4182 98.5697C89.5123 99.6748 89.5593 100.314 89.5593 100.486L89.4182 101.297L89.7005 102.097C89.6064 102.097 89.5593 102.148 89.5593 102.25V102.414C89.5593 103.269 90.0769 103.696 91.1119 103.696H92.7938C92.8409 103.523 92.9271 103.218 93.0526 102.779L92.9114 101.979C93.0055 100.968 92.9859 100.008 92.8526 99.0987L92.7703 98.3345L93.923 98.2522C94.1112 98.2522 94.2052 98.358 94.2052 98.5697C93.8289 98.5697 93.6407 98.6755 93.6407 98.8871V99.0517C93.6407 99.2633 93.7348 99.3691 93.923 99.3691L94.7698 98.5697L94.4875 98.0876V97.9348L96.8869 101.768C97.2633 103.163 97.7299 103.86 98.2866 103.86C98.4748 103.86 98.5689 103.751 98.5689 103.531C99.2432 103.641 99.6196 103.696 99.698 103.696C99.847 103.696 100.035 103.59 100.263 103.378C100.263 103.041 99.6039 101.76 98.2866 99.5337L98.4277 98.5697L97.4515 96.6533C97.2633 96.6533 97.1692 96.81 97.1692 97.1235H97.0281C97.0281 96.9981 96.8399 96.571 96.4635 95.842C96.4635 95.6304 96.7458 95.4736 97.3104 95.3717L97.5926 95.5246C98.0553 95.3913 98.2866 95.2307 98.2866 95.0425V94.5605L98.1454 94.2431C98.6551 94.2431 99.0785 93.4436 99.4157 91.8446C99.4157 90.7787 98.7139 89.6578 97.3104 88.4821V88.3175H97.4515L97.722 88.4821L98.0043 88.3175C98.0043 88.0275 97.5848 87.761 96.7458 87.518V87.6826L96.8869 88.0001C96.6987 88.0001 96.6047 87.9452 96.6047 87.8355ZM93.0761 93.4436V89.4462H94.0641C95.1932 89.9792 95.7578 90.4063 95.7578 90.7277C95.6637 90.7277 95.6167 90.7787 95.6167 90.8805L95.7578 91.198C95.5931 91.8799 95.452 92.3071 95.3344 92.4795L95.4755 92.8087C95.0207 93.2868 94.5503 93.6043 94.0641 93.761C94.0641 93.5808 93.97 93.4749 93.7818 93.4436L93.4995 93.6082C93.4995 93.4985 93.3584 93.4436 93.0761 93.4436ZM99.1334 93.9256H98.71C98.71 94.1686 98.663 94.3802 98.5689 94.5605C98.663 94.5605 98.71 94.6154 98.71 94.7251C98.9923 94.5605 99.1334 94.3998 99.1334 94.2431V93.9256ZM89.7005 103.696H89.5593V104.178H89.7005L89.9828 104.013C89.9828 103.833 89.8887 103.727 89.7005 103.696ZM100.545 104.331V103.86H98.8512V104.178L99.8391 104.495L100.545 104.331ZM108.978 87.7368C108.422 87.3419 107.061 86.9776 104.895 86.6441L104.901 86.803C103.333 87.5562 102.553 88.055 102.562 88.2994L102.316 88.3088L102.31 88.1499C102.537 88.1413 102.693 87.8213 102.778 87.1898C102.692 87.1931 102.647 87.1458 102.644 87.0481L102.403 87.2041C102.407 87.31 102.448 87.3615 102.526 87.3585C102.532 87.497 102.211 87.8233 101.565 88.3374C101.573 88.5411 101.702 88.6381 101.952 88.6286C101.061 90.1066 100.6 91.2704 100.57 92.12C100.602 92.9509 100.845 93.7738 101.298 94.5887C101.04 94.5985 100.915 94.7093 100.924 94.9211L100.929 95.0678C101.074 95.3804 101.209 95.5344 101.334 95.5296L101.452 95.5251C101.447 95.4111 101.402 95.2537 101.316 95.053L101.305 94.7475C101.465 94.8475 101.592 94.8957 101.686 94.8921L101.586 95.6668L101.592 95.8257C101.64 96.0442 101.859 96.2439 102.249 96.4248L102.355 96.1148C103.434 96.6937 104.498 96.9632 105.546 96.9233L106.425 96.8898C106.472 96.888 106.948 97.237 107.851 97.9368C107.855 98.0427 107.818 98.1991 107.74 98.406L107.881 98.7188C107.857 99.9435 107.499 100.614 106.807 100.73L105.604 100.91L105.093 100.771C104.469 100.427 104.071 100.259 103.899 100.266L104.017 99.9552L104.011 99.7964L103.84 98.7137L103.723 98.7182L103.471 98.8869C103.467 98.781 103.426 98.7295 103.348 98.7325L103.09 98.7423C103.004 98.7456 102.963 98.8002 102.967 98.9061C101.637 99.1607 100.983 99.5487 101.002 100.07C101.016 100.437 101.247 101.052 101.695 101.916C101.445 101.926 101.324 102.036 101.332 102.248L101.338 102.395C101.483 102.707 101.614 102.861 101.731 102.857L101.86 102.852C101.856 102.738 101.807 102.581 101.713 102.38L101.701 102.075C101.87 102.175 102.001 102.223 102.095 102.219L101.995 102.994L102.001 103.153C102.048 103.363 102.263 103.563 102.646 103.752L102.764 103.442C103.383 103.859 104.53 104.178 106.207 104.4C107.774 104.03 108.851 103.626 109.438 103.187L109.578 103.488C109.946 103.27 110.145 103.054 110.176 102.841L110.17 102.682L110.012 101.917C110.106 101.914 110.233 101.856 110.393 101.744L110.294 102.531L110.423 102.526C110.667 102.353 110.786 102.19 110.78 102.035L110.774 101.888C110.766 101.676 110.637 101.575 110.387 101.585C110.7 100.977 110.878 100.191 110.919 99.2272C110.887 98.3718 110.341 97.1933 109.281 95.6918C109.367 95.6885 109.49 95.6308 109.65 95.5186C109.586 95.2845 109.238 94.9877 108.606 94.6284C108.602 94.5225 108.643 94.4679 108.729 94.4646L108.588 94.1518L108.336 94.3205C108.469 94.9436 108.649 95.2508 108.876 95.2422L108.882 95.3888L108.764 95.3933C108.57 95.2131 108.097 94.9211 107.345 94.5173C106.811 94.4806 106.381 94.2889 106.055 93.9424L105.304 93.971C105.163 93.9764 105.081 94.0815 105.057 94.2863C104.307 94.315 103.89 93.4375 103.806 91.654C103.892 91.6508 103.933 91.5962 103.929 91.4903L103.788 91.1897C103.848 90.9019 104.18 90.4731 104.785 89.9035L105.16 89.8892L105.559 90.1799L105.799 90.0239C105.803 90.1217 105.848 90.1689 105.934 90.1656C106.098 90.1594 106.176 90.0544 106.169 89.8508C106.653 89.8323 107.08 90.1383 107.449 90.7687C107.707 91.795 108.188 92.2947 108.892 92.2679C109.443 92.1408 109.988 92.067 110.528 92.0465L110.645 92.042L110.898 91.8855C110.845 91.1288 110.558 90.2546 110.034 89.2629C110.292 89.2531 110.417 89.1422 110.409 88.9304L110.403 88.7716C110.258 88.4671 110.123 88.3172 109.998 88.322L109.881 88.3265C109.885 88.4405 109.93 88.5938 110.016 88.7863L110.028 89.104C109.868 89.0041 109.741 88.9559 109.647 88.9595L109.746 88.1725L109.74 88.0259C109.693 87.8074 109.474 87.6077 109.083 87.4268L108.978 87.7368ZM101.687 98.3185C101.519 98.227 101.392 98.1829 101.306 98.1862C101.166 98.1916 101.084 98.2967 101.06 98.5015L101.078 98.9781L101.219 99.2787C101.527 98.7448 101.772 98.4744 101.951 98.4675L102.081 98.7808L102.702 98.4389C102.696 98.2679 102.606 98.1693 102.432 98.1433L101.687 98.3185Z" fill="#FFAE13"/>
<path d="M79.4414 80.3662C79.6343 77.6369 79.8824 75.109 80.011 71.7375C80.1396 68.8476 80.2682 65.4761 80.3968 61.623C80.5254 57.7377 80.654 53.0464 80.7826 48.4226H84.3994H88.2573C89.704 48.3905 91.2633 48.3424 92.935 48.2781C93.0958 49.8515 93.2887 51.9741 93.5137 53.7722L94.1888 59.1666C94.446 61.1895 94.7354 63.3248 95.0569 65.5724C95.4105 63.0358 95.7802 60.178 96.166 56.9992C96.5518 53.8204 97.1552 50.1084 97.4445 46.7369C98.6983 46.769 99.3072 46.6727 100.722 46.7369C101.911 46.8012 103.176 46.7047 104.654 46.7368C106.165 46.7689 108.415 46.6726 109.958 46.7368C109.958 49.4661 110.206 53.5016 110.335 57.0016C110.432 60.0199 110.611 63.4966 110.772 67.703C110.965 71.9093 111.209 76.7784 111.427 82.2383L102.194 81.4173C102.226 79.2981 102.242 77.9346 102.242 75.3016C102.242 73.054 102.21 70.3889 102.146 67.3064C102.114 64.1917 102.033 60.7881 101.905 57.0955C101.68 58.4441 101.455 59.9212 101.23 61.5266C101.004 63.1321 100.779 64.8018 100.554 66.5357C100.329 68.2375 100.12 69.9715 99.9275 71.7375C99.7346 73.4714 99.5738 75.1732 99.4452 76.8429C98.5772 76.8429 97.661 76.8268 96.6965 76.7947C95.8606 76.7626 94.9283 76.7465 93.8995 76.7465C92.9029 76.7144 91.8902 76.6663 90.8614 76.6021C90.7328 75.2535 90.556 73.6962 90.3309 71.9301C90.138 70.3889 89.8969 68.5426 89.6076 66.3912C89.3182 64.2078 88.9485 61.7032 88.4984 58.8776V68.9921C88.5306 72.781 88.5431 76.7508 88.6396 81.0214L79.4414 80.3662Z" fill="white"/>
<path d="M66.7058 81.2429C68.3196 81.2569 70.0638 81.2722 71.7659 80.4512C73.4681 79.6302 74.2825 78.8507 75.1611 77.4383C76.0397 76.0259 76.6966 74.2802 77.1318 72.2012C77.535 70.122 77.7523 67.2804 77.7763 64.5352C77.7991 61.9161 77.6595 59.5323 77.3574 57.3838C77.0556 55.2037 76.5105 53.3371 75.7219 51.7839C74.9016 50.1988 73.8054 48.9743 72.4333 48.1103C71.0294 47.2145 69.2367 46.757 67.0551 46.738C64.8415 46.7187 63.0253 47.1131 61.6066 47.9212C60.156 48.6975 59.0231 49.8394 58.2078 51.3471C57.3605 52.8544 56.7829 54.6955 56.4752 56.8703C56.1354 59.0448 55.9533 61.5204 55.9291 64.2972C55.9342 67.3899 56.1519 70.0111 56.5823 72.1607C57.0127 74.3104 57.6718 75.9979 58.5585 77.331C59.4131 78.6639 60.5275 79.6462 61.9018 80.2578C63.244 80.8691 64.845 81.2266 66.7058 81.2429ZM66.6661 74.7575C66.4416 74.7555 66.2501 74.6434 66.0916 74.4211C65.901 74.1986 65.7608 73.724 65.6709 72.9974C65.5489 72.2705 65.478 71.1969 65.4584 69.7767C65.4066 68.3561 65.3913 66.431 65.4125 64.0013C65.4326 61.6978 65.4808 59.8521 65.5571 58.4642C65.6013 57.0761 65.6908 56.0197 65.8254 55.2951C65.928 54.5701 66.0765 54.0981 66.2709 53.8789C66.4656 53.6281 66.6913 53.5039 66.9479 53.5061C67.2687 53.5089 67.5242 53.6531 67.7142 53.9388C67.9045 54.1929 68.0443 54.7148 68.1336 55.5045C68.223 56.2943 68.2775 57.3992 68.2972 58.8195C68.3169 60.2397 68.3168 62.0858 68.297 64.3578C68.2769 66.6613 68.2287 68.507 68.1524 69.8949C68.0764 71.2512 67.9871 72.2918 67.8845 73.0167C67.7498 73.7413 67.5853 74.2133 67.3909 74.4325C67.1965 74.6517 66.9549 74.76 66.6661 74.7575Z" fill="white"/>
<path d="M42.8463 81.8478C41.2291 81.8619 39.4813 81.8772 37.7756 81.0415C36.0698 80.2059 35.2536 79.4127 34.373 77.9754C33.4924 76.5381 32.8339 74.7617 32.3975 72.6462C31.9932 70.5304 31.775 67.639 31.7507 64.8456C31.7274 62.1806 31.867 59.755 32.1694 57.5689C32.4715 55.3506 33.0176 53.4513 33.8075 51.871C34.6294 50.2583 35.7277 49.0124 37.1025 48.1334C38.5091 47.2221 40.3055 46.7569 42.4916 46.7378C44.7098 46.7184 46.5298 47.12 47.9516 47.9425C49.4052 48.7326 50.5407 49.8947 51.3578 51.4289C52.2071 52.9628 52.7861 54.8362 53.0948 57.0492C53.4356 59.2618 53.6183 61.7809 53.643 64.6065C53.6383 67.7534 53.4205 70.4205 52.9895 72.6078C52.5585 74.795 51.8983 76.512 51.0099 77.8684C50.1537 79.2246 49.0372 80.224 47.6601 80.8461C46.3152 81.468 44.7109 81.8315 42.8463 81.8478ZM42.8852 75.2487C43.1102 75.2467 43.3021 75.1327 43.4609 74.9065C43.6518 74.6801 43.7923 74.1972 43.8823 73.4579C44.0044 72.7183 44.0752 71.6259 44.0948 70.1807C44.1465 68.7353 44.1615 66.7764 44.1399 64.304C44.1195 61.9601 44.0709 60.0821 43.9943 58.6699C43.9498 57.2574 43.86 56.1825 43.725 55.4451C43.6221 54.7074 43.4732 54.2271 43.2784 54.004C43.0833 53.7488 42.8571 53.6224 42.5999 53.6246C42.2784 53.6274 42.0225 53.7741 41.8321 54.0648C41.6415 54.3233 41.5015 54.8544 41.412 55.6579C41.3226 56.4615 41.2681 57.5858 41.2486 59.031C41.229 60.4761 41.2294 62.3546 41.2495 64.6664C41.27 67.0103 41.3186 68.8884 41.3952 70.3006C41.4715 71.6807 41.5612 72.7396 41.664 73.4772C41.7991 74.2146 41.964 74.6948 42.1589 74.9179C42.3537 75.141 42.5958 75.2512 42.8852 75.2487Z" fill="white"/>
<path d="M102.337 42.8058C100.956 42.8058 99.6909 42.5742 98.5422 42.1112C97.4212 41.6754 96.4411 40.9128 95.6018 39.8233C94.7889 38.7066 94.1426 37.2086 93.6627 35.3292C93.1823 33.4226 92.9059 31.0122 92.8337 28.0978C92.7682 25.4558 92.9017 23.1951 93.2341 21.3158C93.5659 19.4092 94.0961 17.8567 94.8245 16.6583C95.5793 15.4326 96.5318 14.5338 97.6819 13.9618C98.8591 13.3898 100.246 13.1039 101.844 13.1039C103.414 13.1039 104.762 13.4171 105.888 14.0435C107.013 14.6427 107.941 15.4735 108.671 16.5357C109.401 17.598 109.92 18.8509 110.226 20.2944C110.56 21.738 110.707 23.2088 110.667 24.8702H103.232C103.205 22.6913 103.073 21.1932 102.837 20.3761C102.6 19.559 102.265 19.1505 101.831 19.1505C101.561 19.1505 101.334 19.273 101.15 19.5182C100.994 19.7633 100.87 20.2263 100.778 20.9072C100.686 21.5609 100.628 22.4734 100.603 23.6446C100.604 24.8157 100.628 26.3274 100.674 28.1795C100.722 30.1133 100.788 31.6795 100.872 32.8779C100.982 34.0491 101.114 34.9751 101.266 35.6561C101.417 36.3097 101.591 36.7592 101.787 37.0043C102.009 37.2222 102.269 37.3311 102.566 37.3311C103 37.3311 103.303 37.0179 103.477 36.3915C103.678 35.7378 103.998 34.5067 104.111 32.8779H102.409L102.409 26.9947H111.042C111.232 30.2904 111.15 32.9732 110.795 35.0432C110.467 37.086 109.924 38.693 109.168 39.8642C108.411 41.0081 107.442 41.7844 106.261 42.1929C105.107 42.6015 103.799 42.8058 102.337 42.8058Z" fill="white"/>
<path fill-rule="evenodd" clip-rule="evenodd" d="M73.1918 42.8337C73.471 40.6275 74.0283 37.2029 74.3659 34.3072C74.6639 31.8527 74.9998 28.9018 75.3733 25.4545C75.746 21.9796 76.1447 18.0635 76.5695 13.7061C78.0298 13.651 79.3822 13.6096 80.6268 13.582C81.8985 13.5544 83.0082 13.5406 83.9559 13.5406H86.9613C87.4044 16.2985 87.9224 19.2769 88.5154 22.476C89.0126 25.2339 89.5906 28.3916 90.2496 31.9492C90.9357 35.5068 91.6822 38.89 92.4893 42.8337L84.6166 42.4797C84.5768 42.0936 84.5202 41.2983 84.4469 40.7191C84.4007 40.14 84.3369 39.3954 84.2554 38.568H80.8424L80.7135 42.4797L73.1918 42.8337ZM81.5249 24.7926C81.6696 22.6139 81.791 20.9592 81.889 19.8285C82.0347 20.9592 82.1975 22.2003 82.3775 23.5516C82.5511 24.7099 82.7311 26.0612 82.9174 27.6056C83.1309 29.15 83.3475 30.7909 83.5673 32.5284H81.0898C81.2343 29.5223 81.3793 26.9437 81.5249 24.7926Z" fill="white"/>
<path fill-rule="evenodd" clip-rule="evenodd" d="M63.771 40.2067C63.5544 39.3168 63.2836 38.2515 62.9587 37.011C62.6338 35.7435 62.2547 34.3277 61.8215 32.7635C61.7944 32.7905 61.7402 32.804 61.659 32.804H61.2529L61.4153 42.3748L53.9016 42.8058C53.9287 40.6483 53.9557 36.8896 53.9828 34.058C54.0099 31.6309 54.0234 28.7183 54.0234 25.3204C54.0505 21.9224 54.0641 18.0795 54.0641 13.7915C55.2825 13.5758 56.4332 13.414 57.5163 13.3061C58.5994 13.1713 59.6147 13.1039 60.5624 13.1039C64.326 13.1039 67.0743 13.9668 68.8072 15.6928C70.5671 17.3918 71.4471 19.9268 71.4471 23.2978C71.4471 25.0777 71.1358 26.5609 70.513 27.7475C69.9173 28.9341 69.0915 29.9049 68.0355 30.66C68.198 31.1994 68.6041 32.4534 69.2539 34.4221C69.9038 36.3638 70.8515 38.9498 72.097 42.3748L64.4614 42.8058L63.771 40.2067ZM63.0805 26.9384C62.6473 27.5587 62.0381 27.8823 61.2529 27.9093C61.2529 27.0463 61.2393 26.1429 61.2122 25.199C61.1852 24.39 61.1581 23.4865 61.131 22.4887V19.3335C62.0516 19.2526 62.715 19.6301 63.1211 20.4661C63.5543 21.2752 63.771 22.3943 63.771 23.8236C63.771 25.2799 63.5408 26.3182 63.0805 26.9384Z" fill="white"/>
<path fill-rule="evenodd" clip-rule="evenodd" d="M20.5115 78.7339C20.258 77.6913 19.9411 76.1497 19.5608 74.6964C19.1804 73.2115 18.7367 71.5529 18.2297 69.7204C18.198 69.752 18.1346 69.7678 18.0395 69.7678H17.5641L17.7543 82.0079L8.95958 82.5128C8.99127 79.9853 9.02297 74.5542 9.05466 71.2369C9.08635 68.3935 9.1022 64.9814 9.1022 61.0006C9.13389 57.0199 9.14974 52.5178 9.14974 47.4944C10.5759 47.2417 11.9228 47.0521 13.1905 46.9257C14.4582 46.7678 15.6467 46.6888 16.756 46.6888C21.1612 46.6888 24.378 47.6998 26.4064 49.7218C28.4664 51.7121 29.4964 54.6819 29.4964 58.6311C29.4964 60.7163 29.1319 62.4539 28.403 63.844C27.7058 65.2342 26.7391 66.3715 25.5031 67.2561C25.6933 67.888 26.1687 69.3571 26.9293 71.6634C27.6899 73.9382 28.7991 77.1146 30.257 81.127L21.3197 81.4851L20.5115 78.7339ZM19.7034 62.8962C19.1963 63.6229 18.4832 64.002 17.5641 64.0336C17.5641 63.0226 17.5483 61.9642 17.5166 60.8585C17.4849 59.9107 17.4532 58.8523 17.4215 57.6833V53.9869C18.4991 53.8921 19.2755 54.3344 19.7509 55.3138C20.258 56.2616 20.5115 57.5727 20.5115 59.2472C20.5115 60.9532 20.2421 62.1696 19.7034 62.8962Z" fill="white"/>
<path d="M37.9042 42.9652C37.9042 40.619 37.8906 36.6927 37.8636 33.8071C37.8365 31.3261 37.7959 28.3865 37.7417 24.9886C37.7147 21.5636 37.6605 17.8016 37.5793 13.7025C38.6623 13.7294 39.8943 13.7294 41.2752 13.7025C42.4666 13.7025 43.8745 13.689 45.4991 13.662C47.1237 13.635 48.9514 13.5946 50.9821 13.5406C50.955 14.053 50.9415 14.6598 50.9415 15.361C50.9144 15.9813 50.9009 16.7364 50.9009 17.6263V20.7816C50.5218 20.7546 50.048 20.7411 49.4794 20.7411C48.992 20.7411 48.3692 20.7546 47.6111 20.7816C46.853 20.7816 45.9594 20.795 44.9305 20.822V22.3187C44.9305 22.8042 44.917 23.3975 44.8899 24.0986C44.8899 24.7998 44.9034 25.5954 44.9305 26.4853H46.677C47.6246 26.4853 48.8837 26.4583 50.4541 26.4044V28.3865V30.6519C50.4541 31.5148 50.4677 32.4587 50.4947 33.4835C50.1427 33.4565 49.7095 33.443 49.1951 33.443H47.4892C46.8123 33.443 46 33.4565 45.0524 33.4835C45.0794 34.6971 45.093 35.978 45.093 37.3264C45.1201 38.6748 45.1607 40.5409 45.2148 42.0512L37.9042 42.9652Z" fill="white"/>
<path fill-rule="evenodd" clip-rule="evenodd" d="M0.550277 23.8621C0.434189 23.3036 0.327093 22.7883 0.265021 22.2126C-0.097849 20.5384 -0.0437162 18.4382 0.162748 16.7952C0.533699 15.2892 0.704651 14.4339 0.675604 14.2292C1.63444 11.3311 1.93403 10.433 2.45564 10.0665C2.43767 10.1264 2.44712 10.1619 2.48399 10.173L2.47444 10.1863C2.19179 10.5799 2.12426 10.674 2.08562 10.7787C2.07349 10.8115 2.06421 10.8454 2.05202 10.89C2.03827 10.9402 2.02083 11.004 1.99144 11.095L2.17116 11.1488C2.2792 10.7883 2.73119 10.0869 3.52714 9.04472C4.53612 7.297 5.7472 5.74317 7.11771 4.43657C7.11771 4.43657 3.40069 11.9389 7.92154 16.6598C7.85965 15.7152 7.85909 14.8635 7.91173 14.0945L7.91134 14.0946C7.90228 12.8083 8.09711 11.7277 8.49582 10.8528L8.60237 10.8385C9.08401 9.65432 9.77253 8.81429 10.5702 8.19669L10.5258 8.05602L12.9787 6.79259C12.9999 6.79314 13.0272 6.79528 13.0608 6.7979C13.1489 6.80478 13.2798 6.81499 13.4533 6.80854C13.9916 6.64663 14.5306 6.51528 15.0507 6.39006C15.0886 6.37285 15.127 6.35496 15.1659 6.33636C15.2805 6.30129 15.3855 6.28532 15.4823 6.28589C18.2993 5.60003 20.3676 4.89266 18.3447 0C19.8359 0.839132 21.0054 1.60921 21.9155 2.32059C22.4093 2.57167 22.6974 2.76839 22.7796 2.91074L22.9421 2.81697C22.811 2.60925 22.523 2.38949 22.078 2.15769C22.1114 2.13845 22.1196 2.11418 22.1026 2.08486C22.5797 2.12223 23.2685 2.83383 24.1689 4.21967C24.1447 4.35089 24.3088 4.79851 24.6612 5.56253C24.6748 5.6224 24.6878 5.68368 24.7001 5.74627C24.8357 6.19404 24.8683 6.61355 24.8356 7.0111C24.849 7.65715 24.7774 8.34353 24.5718 8.9853C24.5384 9.00453 24.48 9.01872 24.3964 9.02788L23.7729 10.2632C23.5379 11.2746 23.814 12.2615 25.7735 13.4193C25.7735 13.4193 31.6219 17.6748 28.9888 5.11383C29.4202 5.56674 29.8337 6.04578 30.2278 6.54899C30.2596 6.57727 30.2992 6.62034 30.3477 6.6803L30.6873 6.92135C31.747 8.60534 32.3916 9.75832 32.6211 10.3803C32.6531 10.4453 32.6848 10.5105 32.7162 10.576L32.868 10.5364C32.7145 9.98606 32.3832 9.26832 31.8739 8.38318C31.9112 8.37347 31.9198 8.3305 31.9 8.25425C32.4407 8.76475 33.2377 10.8676 34.2908 14.5627C34.2842 14.6315 34.2943 14.7628 34.3209 14.9565C34.8875 17.107 35.1941 19.4053 35.1941 21.7908L35.195 21.7899C35.195 21.8528 35.1947 21.9155 35.1942 21.9782L35.1947 21.9785C35.1947 22.0727 35.1931 22.1709 35.1901 22.273C35.1478 24.3493 34.8344 26.338 34.2997 28.2079C34.0958 29.1776 33.8571 30.2363 33.5835 31.3838C33.4696 32.1728 32.6966 33.8442 31.2644 36.398H31.1668L30.9715 36.2422C30.825 36.6367 30.288 37.3738 29.3603 38.4534L29.458 38.7026V38.8272H29.043L29.1406 39.0763C28.1967 40.3843 26.789 41.6716 24.9175 42.9381C24.8035 43.0212 24.6733 43.0627 24.5269 43.0627C24.4943 42.8966 24.4211 42.8135 24.3072 42.8135H24.2095C23.0703 43.3326 21.3615 43.7998 19.0831 44.215L18.0579 44.0904C18.0416 44.2565 17.9765 44.3396 17.8626 44.3396H17.5696C15.454 44.3396 12.8989 43.5298 9.90444 41.9104C8.70014 40.9761 7.89456 40.0314 7.48771 39.0763C6.59262 38.3911 5.88469 37.5814 5.36391 36.6471C5.23372 36.7302 5.13607 36.7717 5.07097 36.7717C4.45255 36.3357 3.51678 34.7889 2.26366 32.1313C2.08465 31.9652 1.71034 30.9374 1.14074 29.0481C1.27093 29.0481 1.33603 28.965 1.33603 28.7989V28.3006L0.945446 27.522V27.3975C1.07564 27.1691 1.14074 27.0341 1.14074 26.9926C0.880348 26.9926 0.750155 26.785 0.750155 26.3697L0.945446 26.2451C0.842492 25.2679 0.689882 24.5337 0.550277 23.8621ZM28.8723 25.3313C28.9636 25.1082 29.0658 24.715 29.0708 24.6657C29.0708 24.6186 29.0368 24.485 28.9686 24.265L29.0708 23.3927C28.8664 22.4183 28.7642 21.766 28.7642 21.436L28.5343 21.5303C28.4425 21.5303 28.4459 21.4278 28.4525 21.2227V21.2227V21.2227C28.4582 21.0469 28.4664 20.7958 28.4192 20.4694C28.2694 20.4694 28.2534 20.3631 28.2212 20.1504C28.1803 19.8794 28.1133 19.4357 27.71 18.8192L25.979 16.6739C26.0471 16.5482 26.0812 16.4539 26.0812 16.391C24.4289 14.9136 22.0783 13.9392 20.2045 13.4677C18.5182 13.342 17.5728 13.2084 17.3683 13.067C14.0467 13.2084 12.1133 13.6013 11.5682 14.2457C11.6363 14.2457 11.6704 14.2771 11.6704 14.34C12.5221 13.8999 13.195 13.672 13.689 13.6563V13.9628C13.195 13.9628 12.0281 14.5129 10.1884 15.613L9.98401 15.5187C9.04713 16.3203 8.20394 17.5147 7.45443 19.1021H7.25002V18.9135C7.11375 18.9135 6.93489 19.3693 6.71344 20.2808V21.436L6.50903 21.7425C6.50903 21.8839 6.5431 22.0096 6.61124 22.1197C6.58409 22.1478 6.5583 22.1614 6.53386 22.1743C6.4356 22.226 6.35919 22.2662 6.30462 23.1975C6.24819 24.42 6.28105 25.1408 6.40151 25.3025C6.32197 25.4106 6.27465 25.5385 6.25954 25.6864L6.43016 26.0275L6.30678 27.2348C6.42972 28.2101 6.55898 28.7046 6.69454 28.7185L6.71469 28.5213L6.91804 28.5421C7.28884 29.659 7.71563 30.6097 8.19842 31.3942C7.66697 35.6933 9.80348 36.7056 11.1697 37.3528L11.1724 37.3541C11.2837 37.4371 11.4109 37.4785 11.554 37.4785C11.5823 37.331 11.6421 37.249 11.7332 37.2327C11.6088 39.1852 12.0907 39.7947 12.7987 40.6903L12.8347 40.7358C13.5763 41.8791 15.7909 41.8587 17.1595 41.846H17.1595H17.1596C17.2928 41.8448 17.4181 41.8436 17.5331 41.8436H17.7127C17.7825 41.8436 17.8224 41.7606 17.8324 41.5945L18.4608 41.7191C19.1366 41.5181 19.6619 41.5457 20.1032 41.5688C20.5738 41.5935 20.9489 41.6132 21.3093 41.3453H21.3692C21.439 41.3453 21.4839 41.4284 21.5038 41.5945C21.5936 41.5945 21.6734 41.553 21.7432 41.4699C21.8415 41.3956 21.9419 41.3259 22.0429 41.2559C22.8106 40.7231 23.6115 40.1674 23.772 37.3673C24.4513 37.2023 25.0189 36.9641 25.3742 36.6208C26.551 35.6876 27.6021 34.4292 27.1208 31.2726H27.1074L27.3308 30.9251C27.5355 30.5066 27.663 30.1632 27.7608 29.9C27.9215 29.4672 28.0018 29.2509 28.2126 29.2724C28.2943 28.936 28.3131 28.6728 28.3262 28.4885V28.4884C28.3414 28.2734 28.3491 28.1659 28.4403 28.1753L28.659 28.2972C28.6682 28.2075 28.6668 28.0938 28.6651 27.957V27.9569V27.9568C28.6604 27.5675 28.6533 26.9916 28.8808 26.2533L28.8723 25.3313Z" fill="#FFAE13"/>
<path fill-rule="evenodd" clip-rule="evenodd" d="M11.4242 27.6326C11.2858 27.539 11.1814 27.4936 11.111 27.4963C10.9956 27.5007 10.9291 27.6061 10.9113 27.8126L10.9244 28.1567C10.7501 28.5633 10.8781 29.0498 11.2549 29.3135L12.2355 29.9998L11.4634 31.1021C11.161 31.5338 11.2659 32.1289 11.6978 32.4312C12.1298 32.7335 12.7251 32.6286 13.0275 32.1968L13.7996 31.0946L14.8641 31.8397C15.0928 31.9997 15.3673 32.0456 15.6198 31.9893C15.6542 32.0757 15.7407 32.1162 15.8794 32.1109L16.139 31.8826L16.1347 31.7692C16.2966 31.763 16.4081 31.5345 16.4692 31.0836C16.4078 31.086 16.3757 31.0522 16.3731 30.9824L16.3639 30.9884C16.3435 30.7123 16.2038 30.4473 15.9593 30.2762L14.8948 29.5311L15.5547 28.5891C15.8571 28.1574 15.7521 27.5623 15.3202 27.26C14.8883 26.9577 14.293 27.0626 13.9905 27.4944L13.3307 28.4364L12.3501 27.75C12.3174 27.7271 12.2837 27.7065 12.2493 27.6883C12.2263 27.5602 12.1544 27.4845 12.0336 27.4612L11.4242 27.6326ZM11.1496 31.9013L11.1413 31.6832L11.137 31.5697C10.9583 31.5765 10.8719 31.6556 10.8777 31.8068L10.8816 31.9115C10.9852 32.1347 11.0789 32.2447 11.1626 32.2415L11.2547 32.238C11.2516 32.1566 11.2166 32.0444 11.1496 31.9013ZM15.9437 28.043L15.937 27.8685C15.89 27.7627 15.8653 27.6785 15.8629 27.6158L15.9273 27.6134C15.9961 27.6107 16.0702 27.6931 16.1497 27.8604L16.153 27.9476C16.1575 28.064 16.0888 28.1249 15.947 28.1303L15.9437 28.043Z" fill="#FFAE13"/>
<path fill-rule="evenodd" clip-rule="evenodd" d="M20.2654 26.8814L20.0785 26.9319C19.963 26.9992 19.8704 27.0423 19.8006 27.0612L19.787 27.0107C19.7746 26.9648 19.8585 26.8896 20.0388 26.7851L20.1285 26.7608C20.2581 26.7258 20.3361 26.7572 20.3626 26.8551L20.2654 26.8814ZM23.7293 29.8436C23.7849 29.9358 23.7737 30.0054 23.6957 30.0525L23.6416 30.0851C23.5846 30.1195 23.4982 30.1087 23.3826 30.0528L23.3539 30.0053L23.6708 29.8789L23.7293 29.8436ZM21.3996 27.6478C21.4078 27.5562 21.4141 27.4547 21.4186 27.3431L21.6182 27.5909L21.7961 28.0314C21.822 28.1233 21.8316 28.1978 21.825 28.255L21.9775 28.4727L23.0095 27.7504C23.1246 27.6699 23.2513 27.6182 23.381 27.594L23.3687 27.5793C23.4376 27.568 23.4671 27.5321 23.4571 27.4714C23.9123 27.476 24.153 27.5582 24.1792 27.718L24.2913 27.6996L24.5502 27.9288C24.5734 28.0698 24.5414 28.1619 24.4543 28.2053C24.5991 28.6015 24.4668 29.0606 24.1048 29.314L23.0728 30.0363L23.8317 31.1197C24.1341 31.5515 24.0292 32.1465 23.5973 32.4488C23.3899 32.594 23.1447 32.6452 22.9125 32.6115C22.828 32.6643 22.7609 32.6917 22.7112 32.6936L22.3424 32.4804L22.4262 32.4773L22.4227 32.387C22.4173 32.3822 22.4118 32.3774 22.4064 32.3724C22.2887 32.3661 22.189 32.2372 22.1075 31.9857L21.5088 31.131L20.4955 31.8402C20.0636 32.1425 19.4683 32.0375 19.1659 31.6058C18.8634 31.174 18.9684 30.5789 19.4003 30.2766L20.4135 29.5674L19.7401 28.6061C19.4376 28.1743 19.5426 27.5792 19.9745 27.277C20.4063 26.9747 21.0016 27.0796 21.3041 27.5114L21.3996 27.6478Z" fill="#FFAE13"/>
</svg>
